<?xml version="1.0" encoding="utf-8"?>
<svg viewBox="400 520 49 49" xmlns="http://www.w3.org/2000/svg">
  <path stroke="none" fill="#FFD948" d="M402 525.95 L402.1 525.05 Q402.5 522 406 522 L443 522 Q446.5 522 446.95 525.05 L447 525.95 447 559 Q447 563 443 563 L406 563 Q402 563 402 559 L402 525.95 M444 542.5 L405 542.5 405 559 Q405 560 406 560 L443 560 Q444 560 444 559 L444 542.5"/>
  <path stroke="none" fill="#CDA400" d="M402 525.95 L402 559 Q402 563 406 563 L443 563 Q447 563 447 559 L447 525.95 446.95 525.05 Q446.5 522 443 522 L406 522 Q402.5 522 402.1 525.05 L402 525.95 M400 559.25 L400 525.95 Q400.05 520 406 520 L443 520 Q449 520 449 525.95 L449 559.25 Q448.85 565 443 565 L406 565 Q400.15 565 400 559.25"/>
  <path stroke="none" fill="#A88600" d="M400 559.25 Q400.15 565 406 565 L443 565 Q448.85 565 449 559.25 L449 563 Q449 569 443 569 L406 569 Q400 569 400 563 L400 559.25"/>
  <path stroke="none" fill="#FFCC00" d="M444 542.5 L444 559 Q444 560 443 560 L406 560 Q405 560 405 559 L405 542.5 444 542.5"/>
</svg>